<svg width="23" height="18" viewBox="0 0 23 18" fill="none" xmlns="http://www.w3.org/2000/svg">
<path d="M19.5932 2.03374C18.1536 1.37304 16.6345 0.901494 15.0737 0.630847C15.0596 0.628465 15.0451 0.630522 15.0322 0.636734C15.0192 0.642946 15.0086 0.653008 15.0016 0.665537C14.8059 1.01244 14.5895 1.4662 14.4382 1.82143C12.7559 1.56612 11.0446 1.56612 9.36227 1.82143C9.19355 1.42571 9.00268 1.0398 8.79057 0.665537C8.78345 0.653146 8.77275 0.643199 8.75987 0.637007C8.74699 0.630815 8.73254 0.628667 8.71841 0.630847C7.15733 0.900046 5.63788 1.37184 4.19891 2.03374C4.1866 2.03844 4.1763 2.04726 4.16977 2.05871C1.29184 6.35897 0.502277 10.5538 0.889425 14.6958C0.890813 14.7153 0.903301 14.7347 0.918565 14.7472C2.59444 15.9886 4.46893 16.9364 6.46213 17.5502C6.47621 17.5546 6.49133 17.5545 6.5053 17.5497C6.51928 17.545 6.53137 17.5359 6.53984 17.5238C6.96723 16.941 7.34744 16.3263 7.67492 15.6797C7.68174 15.6663 7.68408 15.6512 7.68158 15.6364C7.67908 15.6217 7.67188 15.6081 7.66104 15.5978C7.65387 15.591 7.64536 15.5858 7.63606 15.5825C7.03822 15.3528 6.45921 15.0767 5.90431 14.7569C5.88881 14.7481 5.87728 14.7337 5.87211 14.7166C5.86695 14.6996 5.86854 14.6812 5.87655 14.6653C5.88128 14.655 5.88842 14.6459 5.89737 14.6389C6.01393 14.5515 6.13049 14.4599 6.2415 14.3683C6.25131 14.3605 6.26307 14.3554 6.27554 14.3537C6.288 14.352 6.3007 14.3537 6.31227 14.3586C9.94646 16.0182 13.8804 16.0182 17.4702 14.3586C17.4822 14.3534 17.4953 14.3516 17.5083 14.3533C17.5212 14.355 17.5335 14.3602 17.5437 14.3683C17.6547 14.4599 17.7713 14.5515 17.8878 14.6389C17.8973 14.6458 17.9049 14.655 17.9099 14.6655C17.915 14.6761 17.9173 14.6877 17.9168 14.6994C17.9162 14.7111 17.9128 14.7225 17.9068 14.7325C17.9008 14.7425 17.8923 14.7509 17.8823 14.7569C17.3287 15.0796 16.7489 15.3554 16.1492 15.5811C16.1396 15.5846 16.1309 15.5901 16.1237 15.5973C16.1165 15.6045 16.111 15.6132 16.1075 15.6228C16.1043 15.632 16.103 15.6419 16.1037 15.6516C16.1045 15.6614 16.1072 15.671 16.1117 15.6797C16.4447 16.3249 16.8263 16.941 17.2454 17.5238C17.2538 17.5359 17.2659 17.545 17.2799 17.5497C17.2939 17.5545 17.309 17.5546 17.3231 17.5502C19.3196 16.9383 21.1972 15.9903 22.875 14.7472C22.8834 14.7414 22.8904 14.7337 22.8954 14.7248C22.9005 14.7159 22.9034 14.706 22.9041 14.6958C23.3676 9.90713 22.1284 5.74703 19.621 2.0601C19.6185 2.05401 19.6147 2.04852 19.6099 2.04398C19.6051 2.03944 19.5995 2.03595 19.5932 2.03374ZM8.21748 12.1731C7.12264 12.1731 6.22207 11.1685 6.22207 9.93627C6.22207 8.70267 7.10599 7.69803 8.21748 7.69803C9.33729 7.69803 10.2295 8.711 10.2129 9.93627C10.2129 11.1685 9.32897 12.1731 8.21748 12.1731ZM15.5941 12.1731C14.5007 12.1731 13.5987 11.1685 13.5987 9.93627C13.5987 8.70267 14.4826 7.69803 15.5941 7.69803C16.7139 7.69803 17.6075 8.711 17.5895 9.93627C17.5895 11.1685 16.7139 12.1731 15.5941 12.1731Z" fill="white"/>
</svg>
