<svg width="24" height="23" viewBox="0 0 24 23" fill="none" xmlns="http://www.w3.org/2000/svg">
<path d="M23.1516 11.1689C23.1516 4.99954 18.1811 -0.00146484 12.0506 -0.00146484C5.91725 -7.72172e-05 0.946777 4.99954 0.946777 11.1703C0.946777 16.7444 5.00697 21.3652 10.3133 22.2033V14.3979H7.49637V11.1703H10.316V8.70728C10.316 5.90844 11.9742 4.36262 14.5094 4.36262C15.725 4.36262 16.9947 4.58048 16.9947 4.58048V7.32798H15.5946C14.2166 7.32798 13.7865 8.18969 13.7865 9.07361V11.1689H16.8642L16.373 14.3965H13.7851V22.2019C19.0914 21.3638 23.1516 16.743 23.1516 11.1689Z" fill="white"/>
</svg>
