<svg width="23" height="23" viewBox="0 0 23 23" fill="none" xmlns="http://www.w3.org/2000/svg">
<path d="M11.101 0C8.08847 0 7.70965 0.0138763 6.52601 0.0666061C5.34236 0.122111 4.53615 0.308053 3.82985 0.582803C3.08899 0.861465 2.41793 1.29858 1.86358 1.86358C1.29892 2.41821 0.861865 3.08919 0.582803 3.82985C0.308053 4.53476 0.120723 5.34236 0.0666061 6.52184C0.0138763 7.70826 0 8.0857 0 11.1024C0 14.1163 0.0138763 14.4938 0.0666061 15.6774C0.122111 16.8597 0.308053 17.6659 0.582803 18.3722C0.867266 19.1021 1.24609 19.7209 1.86358 20.3384C2.47969 20.9559 3.09857 21.3361 3.82846 21.6192C4.53615 21.894 5.34097 22.0813 6.52323 22.1354C7.70826 22.1881 8.0857 22.202 11.101 22.202C14.1163 22.202 14.4924 22.1881 15.6774 22.1354C16.8583 22.0799 17.6673 21.894 18.3736 21.6192C19.1139 21.3404 19.7845 20.9033 20.3384 20.3384C20.9559 19.7209 21.3348 19.1021 21.6192 18.3722C21.8926 17.6659 22.0799 16.8597 22.1354 15.6774C22.1881 14.4938 22.202 14.1163 22.202 11.101C22.202 8.0857 22.1881 7.70826 22.1354 6.52323C22.0799 5.34236 21.8926 4.53476 21.6192 3.82985C21.3402 3.08917 20.9031 2.41818 20.3384 1.86358C19.7843 1.29837 19.1132 0.861224 18.3722 0.582803C17.6645 0.308053 16.8569 0.120723 15.676 0.0666061C14.491 0.0138763 14.1149 0 11.0982 0H11.1024H11.101ZM10.1061 2.00096H11.1024C14.0664 2.00096 14.4174 2.01067 15.5872 2.06479C16.6696 2.11335 17.2579 2.29513 17.6492 2.44639C18.1668 2.64759 18.5373 2.88904 18.9258 3.27757C19.3144 3.66611 19.5544 4.03522 19.7556 4.55419C19.9083 4.94411 20.0887 5.53247 20.1372 6.61481C20.1914 7.78458 20.2025 8.13565 20.2025 11.0982C20.2025 14.0608 20.1914 14.4133 20.1372 15.583C20.0887 16.6654 19.9069 17.2524 19.7556 17.6437C19.5777 18.1257 19.2936 18.5615 18.9244 18.9189C18.5359 19.3074 18.1668 19.5475 17.6478 19.7487C17.2593 19.9013 16.6709 20.0817 15.5872 20.1317C14.4174 20.1844 14.0664 20.1969 11.1024 20.1969C8.13843 20.1969 7.78597 20.1844 6.6162 20.1317C5.53385 20.0817 4.94689 19.9013 4.55558 19.7487C4.07338 19.571 3.63714 19.2874 3.27896 18.9189C2.90951 18.5609 2.625 18.1247 2.44639 17.6423C2.29513 17.2524 2.11335 16.664 2.06479 15.5817C2.01206 14.4119 2.00096 14.0608 2.00096 11.0955C2.00096 8.13149 2.01206 7.78181 2.06479 6.61204C2.11474 5.52969 2.29513 4.94134 2.44777 4.55003C2.64898 4.03244 2.89043 3.66195 3.27896 3.27341C3.6675 2.88488 4.0366 2.64482 4.55558 2.44361C4.94689 2.29097 5.53385 2.11058 6.6162 2.06063C7.64027 2.01345 8.03713 1.99957 10.1061 1.99818V2.00096ZM17.0276 3.84372C16.8526 3.84372 16.6794 3.87818 16.5178 3.94513C16.3562 4.01207 16.2093 4.1102 16.0856 4.23389C15.9619 4.35759 15.8638 4.50445 15.7968 4.66607C15.7299 4.82769 15.6954 5.00091 15.6954 5.17585C15.6954 5.35078 15.7299 5.52401 15.7968 5.68563C15.8638 5.84725 15.9619 5.9941 16.0856 6.1178C16.2093 6.2415 16.3562 6.33962 16.5178 6.40657C16.6794 6.47351 16.8526 6.50797 17.0276 6.50797C17.3809 6.50797 17.7197 6.36762 17.9695 6.1178C18.2193 5.86798 18.3597 5.52915 18.3597 5.17585C18.3597 4.82255 18.2193 4.48372 17.9695 4.23389C17.7197 3.98407 17.3809 3.84372 17.0276 3.84372ZM11.1024 5.40064C10.3462 5.38884 9.59529 5.52759 8.89327 5.8088C8.19124 6.09001 7.55218 6.50807 7.01327 7.03863C6.47437 7.56919 6.04639 8.20166 5.75427 8.89921C5.46214 9.59676 5.3117 10.3455 5.3117 11.1017C5.3117 11.858 5.46214 12.6066 5.75427 13.3042C6.04639 14.0017 6.47437 14.6342 7.01327 15.1648C7.55218 15.6953 8.19124 16.1134 8.89327 16.3946C9.59529 16.6758 10.3462 16.8146 11.1024 16.8028C12.599 16.7794 14.0264 16.1685 15.0765 15.1019C16.1266 14.0353 16.7152 12.5985 16.7152 11.1017C16.7152 9.60491 16.1266 8.16814 15.0765 7.10152C14.0264 6.03491 12.599 5.42399 11.1024 5.40064ZM11.1024 7.40021C12.0839 7.40021 13.0252 7.79012 13.7193 8.48415C14.4133 9.17818 14.8032 10.1195 14.8032 11.101C14.8032 12.0825 14.4133 13.0238 13.7193 13.7179C13.0252 14.4119 12.0839 14.8018 11.1024 14.8018C10.1209 14.8018 9.17957 14.4119 8.48554 13.7179C7.7915 13.0238 7.4016 12.0825 7.4016 11.101C7.4016 10.1195 7.7915 9.17818 8.48554 8.48415C9.17957 7.79012 10.1209 7.40021 11.1024 7.40021Z" fill="white"/>
</svg>
