<svg width="24" height="23" viewBox="0 0 24 23" fill="none" xmlns="http://www.w3.org/2000/svg">
<path d="M11.9494 2.23437e-06C9.36104 -0.00163927 6.85348 0.901232 4.86029 2.5525C2.86709 4.20378 1.51357 6.49964 1.03374 9.04312C0.553917 11.5866 0.97796 14.2178 2.23255 16.4818C3.48714 18.7457 5.49341 20.5001 7.90445 21.4416C7.80731 20.5632 7.71851 19.2131 7.94191 18.2542C8.14451 17.387 9.24351 12.7356 9.24351 12.7356C9.24351 12.7356 8.91187 12.071 8.91187 11.0885C8.91187 9.54409 9.80688 8.39236 10.9211 8.39236C11.8675 8.39236 12.3254 9.10283 12.3254 9.95622C12.3254 10.9081 11.719 12.3318 11.4054 13.6515C11.1446 14.756 11.9605 15.658 13.0498 15.658C15.023 15.658 16.5396 13.5765 16.5396 10.5737C16.5396 7.91641 14.6289 6.05838 11.9022 6.05838C8.74396 6.05838 6.89009 8.42705 6.89009 10.8748C6.89009 11.8295 7.25781 12.8522 7.71573 13.4086C7.75516 13.4506 7.78305 13.502 7.79667 13.558C7.81029 13.6139 7.80918 13.6724 7.79344 13.7278C7.70879 14.0775 7.52146 14.8323 7.48538 14.9864C7.43682 15.189 7.32442 15.232 7.1135 15.1348C5.72587 14.4896 4.86 12.4623 4.86 10.8332C4.86 7.33222 7.4049 4.11709 12.195 4.11709C16.0457 4.11709 19.0388 6.86042 19.0388 10.5279C19.0388 14.3536 16.6257 17.4327 13.2787 17.4327C12.1534 17.4327 11.096 16.8486 10.7338 16.1575L10.0428 18.7968C9.79162 19.7612 9.11446 20.9698 8.66209 21.7066C10.1884 22.1786 11.7987 22.3155 13.3828 22.108C14.9669 21.9006 16.4876 21.3536 17.8409 20.5045C19.1943 19.6555 20.3484 18.5243 21.2245 17.1883C22.1005 15.8522 22.6779 14.3428 22.9171 12.7632C23.1564 11.1836 23.0518 9.57092 22.6106 8.0354C22.1694 6.49988 21.402 5.07769 20.3607 3.86598C19.3194 2.65426 18.0289 1.68158 16.5772 1.01438C15.1256 0.347172 13.547 0.0011688 11.9494 2.23437e-06Z" fill="white"/>
</svg>
