<svg width="24" height="19" viewBox="0 0 24 19" fill="none" xmlns="http://www.w3.org/2000/svg">
<path d="M7.87314 18.8145C16.2516 18.8145 20.835 11.8722 20.835 5.86241C20.835 5.66815 20.835 5.4711 20.8266 5.27684C21.719 4.63088 22.4891 3.83114 23.1009 2.9151C22.2674 3.28261 21.3841 3.52483 20.4797 3.63389C21.4324 3.06446 22.1459 2.16851 22.4876 1.11257C21.5926 1.64281 20.613 2.01504 19.5916 2.21296C18.905 1.48171 17.9964 0.997282 17.0066 0.834707C16.0168 0.672133 15.001 0.840485 14.1165 1.31369C13.2321 1.78689 12.5284 2.53853 12.1143 3.45219C11.7003 4.36585 11.5992 5.39053 11.8265 6.36751C10.0153 6.27669 8.24338 5.80617 6.62572 4.98646C5.00806 4.16676 3.58077 3.01618 2.43642 1.60934C1.85547 2.61271 1.67818 3.79957 1.94054 4.92891C2.2029 6.05825 2.88525 7.04541 3.84902 7.68992C3.12682 7.66538 2.42049 7.47145 1.78701 7.12377V7.18621C1.78825 8.23731 2.15238 9.25574 2.81784 10.0694C3.4833 10.883 4.40927 11.4419 5.43924 11.6516C5.04829 11.7593 4.64445 11.813 4.23894 11.8112C3.95307 11.812 3.66777 11.7855 3.38694 11.7321C3.67805 12.6369 4.24487 13.428 5.00803 13.9946C5.77119 14.5611 6.69245 14.8748 7.64279 14.8917C6.02836 16.1597 4.03413 16.8474 1.98127 16.8441C1.61955 16.8456 1.25808 16.8248 0.898926 16.7816C2.98247 18.11 5.40219 18.8153 7.87314 18.8145Z" fill="white"/>
</svg>
