<svg width="300" height="55" viewBox="0 0 300 55" fill="none" xmlns="http://www.w3.org/2000/svg">
<path d="M18.8279 13.4179C22.1905 13.4179 25.2721 14.634 27.6677 16.6429L30.924 12.7619C27.6502 10.0102 23.4313 8.34853 18.8294 8.34853C8.4466 8.34853 0 16.7951 0 27.1772C0 37.5607 8.4466 46.0073 18.8301 46.0044C23.432 46.0044 27.651 44.3427 30.9248 41.591L27.6684 37.7099C25.2757 39.7204 22.192 40.9349 18.8294 40.9349C11.2427 40.9349 5.07015 34.7631 5.07015 27.1772C5.06942 19.5912 11.2427 13.4165 18.8301 13.4179H18.8279Z" fill="#CCCCCC"/>
<path d="M123.053 9.43565H112.915C111.516 9.43565 110.381 10.5708 110.381 11.9696V42.384C110.381 43.782 111.517 44.9179 112.915 44.9179H123.053C132.837 44.9179 140.795 36.9592 140.795 27.1764C140.795 17.3922 132.837 9.43347 123.051 9.43565H123.053ZM123.053 39.85H115.45V14.5051H123.053C130.041 14.5051 135.723 20.192 135.723 27.1779C135.726 34.1689 130.041 39.8485 123.051 39.85H123.053Z" fill="#CCCCCC"/>
<path d="M154.519 11.9704V42.3847C154.519 43.7827 155.655 44.9187 157.053 44.9187H178.175V39.85H159.588V29.7111H171.416V24.6425H159.588V14.5051H178.175V9.43639H157.053C155.654 9.43348 154.522 10.5694 154.522 11.9704H154.519Z" fill="#CCCCCC"/>
<path d="M231.24 11.9704V42.3847C231.24 43.7827 232.375 44.9187 233.774 44.9187H254.894V39.85H236.308V29.7111H248.136V24.6425H236.308V14.5051H254.894V9.43639H233.774C232.375 9.43348 231.24 10.5694 231.24 11.9704H231.24Z" fill="#CCCCCC"/>
<path d="M207.119 9.43565H196.135C194.736 9.43565 193.601 10.5708 193.601 11.9696V44.9187H198.671V29.7111H207.119C212.709 29.7111 217.258 25.1631 217.258 19.5738C217.257 13.9844 212.709 9.43347 207.117 9.43565H207.119ZM207.119 24.6425H198.67V14.5051H207.119C209.914 14.5051 212.187 16.7769 212.187 19.5738C212.187 22.3706 209.914 24.6446 207.117 24.6425H207.119Z" fill="#CCCCCC"/>
<path d="M294.521 9.43566V35.3842L273.658 10.3473C272.975 9.52668 271.852 9.22231 270.848 9.58639C269.845 9.95047 269.176 10.9029 269.176 11.9696V44.9187H274.246V18.9709L295.109 44.007C295.6 44.5968 296.318 44.9172 297.053 44.9172C297.341 44.9172 297.633 44.8692 297.916 44.7665C298.919 44.4024 299.588 43.45 299.588 42.3832V9.4342H294.521V9.43566Z" fill="#CCCCCC"/>
<path d="M95.9818 18.5361C95.9694 18.4706 95.9585 18.4051 95.941 18.341C95.9301 18.3024 95.917 18.266 95.9046 18.2281C95.8864 18.1713 95.8675 18.1145 95.8449 18.0592C95.8289 18.0206 95.8107 17.9835 95.7932 17.9463C95.7684 17.8939 95.743 17.8422 95.7138 17.792C95.6934 17.7548 95.6701 17.7199 95.6476 17.6842C95.6163 17.6361 95.5842 17.5888 95.5493 17.5429C95.5238 17.5087 95.4976 17.4759 95.4699 17.4432C95.4335 17.3995 95.3942 17.358 95.3549 17.3172C95.3243 17.2866 95.2937 17.256 95.2616 17.2262C95.2194 17.1876 95.1757 17.1512 95.1299 17.1162C95.0949 17.0893 95.0607 17.0616 95.0243 17.0369C95.0112 17.0274 94.9995 17.0165 94.9857 17.0077L70.275 0.532502C69.4951 0.0118711 68.4779 0.0118711 67.6981 0.532502L42.9859 17.007C42.9721 17.0158 42.9612 17.0267 42.9473 17.0361C42.9109 17.0616 42.8767 17.0886 42.8417 17.1155C42.7966 17.1512 42.7522 17.1876 42.7099 17.2247C42.6779 17.2539 42.6473 17.2844 42.6175 17.3158C42.5767 17.3565 42.5388 17.398 42.5017 17.4417C42.474 17.4745 42.4478 17.5073 42.4223 17.5437C42.3874 17.5895 42.3553 17.6361 42.324 17.6849C42.3015 17.7206 42.2789 17.7556 42.2578 17.7927C42.2286 17.8429 42.2032 17.8946 42.1791 17.9456C42.1616 17.9827 42.1427 18.0206 42.1274 18.0585C42.1049 18.1138 42.0852 18.1706 42.067 18.2274C42.0546 18.2653 42.0415 18.3024 42.0313 18.3366C42.0146 18.4007 42.0022 18.4655 41.9905 18.5318C41.984 18.5653 41.976 18.598 41.9716 18.6323C41.9585 18.7327 41.9512 18.8332 41.9512 18.9359V35.4141C41.9512 35.516 41.9585 35.6179 41.9731 35.7177C41.9782 35.7541 41.9876 35.7832 41.9949 35.8182C42.0066 35.8837 42.0167 35.9492 42.0386 36.0148C42.0488 36.0512 42.0604 36.0876 42.075 36.1276C42.0932 36.1859 42.1114 36.2442 42.1333 36.2973C42.1485 36.3337 42.1697 36.3701 42.1842 36.4065C42.2083 36.4575 42.2352 36.5085 42.2643 36.5616C42.2847 36.598 42.308 36.6344 42.3299 36.6679C42.3612 36.7189 42.3954 36.7626 42.4318 36.8063C42.4573 36.8427 42.4828 36.8718 42.5119 36.9068C42.549 36.9505 42.5847 36.9942 42.6284 37.0327C42.6582 37.0619 42.6866 37.0983 42.7231 37.1201C42.7653 37.1565 42.8104 37.1929 42.8541 37.2308C42.8891 37.2599 42.9269 37.2818 42.9561 37.3102C42.9699 37.3175 42.9779 37.332 42.9925 37.3386L67.6981 53.8218C68.0883 54.084 68.5354 54.215 68.9869 54.2128C69.4383 54.2107 69.8854 54.0818 70.2757 53.8218L94.9879 37.3473C95.0017 37.3386 95.0133 37.3284 95.0265 37.3189C95.0629 37.2934 95.0971 37.2665 95.132 37.2395C95.1772 37.2039 95.2216 37.1667 95.2638 37.1289C95.2959 37.1005 95.3265 37.0691 95.357 37.0386C95.3971 36.9978 95.4357 36.9563 95.4721 36.9126C95.4998 36.8798 95.526 36.8471 95.5514 36.8121C95.5864 36.7662 95.6184 36.7189 95.6498 36.6708C95.6723 36.6359 95.6949 36.6002 95.716 36.5645C95.7451 36.5136 95.7706 36.4619 95.7954 36.4094C95.8129 36.3723 95.8311 36.3352 95.8471 36.2973C95.8697 36.2412 95.8886 36.1844 95.9068 36.1276C95.9192 36.0898 95.9323 36.0526 95.9432 36.0148C95.96 35.9507 95.9716 35.8852 95.984 35.8196C95.9898 35.7861 95.9985 35.7534 96.0022 35.7192C96.0153 35.6187 96.0226 35.5182 96.0226 35.4155V18.9403C96.0226 18.8376 96.0146 18.7371 96.0022 18.6366C95.9964 18.6009 95.9854 18.5718 95.9782 18.5361H95.9818ZM68.9862 32.674L60.7689 27.1779L68.9862 21.681L77.2041 27.1779L68.9862 32.674ZM66.6633 17.6449L56.59 24.3825L48.4587 18.9432L66.6633 6.80702V17.6449ZM52.4112 27.1772L46.599 31.0648V23.2895L52.4112 27.1772ZM56.59 29.9747L66.6633 36.7116V47.5495L48.4587 35.4119L56.59 29.9733V29.9747ZM71.3097 36.7102L81.383 29.9733L89.515 35.4119L71.3097 47.548V36.7102ZM85.5619 27.1786L91.3748 23.2903V31.0662L85.5619 27.1772V27.1786ZM81.383 24.3825L71.3097 17.6456V6.80702L89.515 18.9432L81.383 24.3825Z" fill="#CCCCCC"/>
</svg>
