<svg width="200" height="88" viewBox="0 0 200 88" fill="none" xmlns="http://www.w3.org/2000/svg">
<path d="M0 43.8788V87.7576H17.2068C36.2409 87.7576 44.1591 85.5636 49.9455 78.8447C55.7318 72.2629 56.6455 66.5038 56.0364 40.4508C55.5795 17.4144 55.275 15.4947 51.925 10.5583C46.1386 2.05682 39.7432 0 18.2727 0H0V43.8788ZM35.175 17.6886C38.6773 20.2939 38.8295 20.8424 38.8295 43.0561C38.8295 64.5841 38.6773 65.9553 35.4795 68.8348C32.8909 71.0288 30.15 71.8515 24.8205 71.8515L17.5114 71.9886L17.0545 43.4674L16.75 15.0833H24.2114C29.2364 15.0833 32.7386 15.9061 35.175 17.6886V17.6886ZM70.1977 3.56515C67.1523 7.1303 67 8.91288 67 44.153V81.0386L70.8068 84.3295C74.3091 87.6205 75.2227 87.7576 95.1705 87.7576H115.727V72.8114L100.195 72.4L84.5114 71.9886V51.4205L94.1045 51.0091L103.545 50.5977V35.6515H83.75V15.0833H115.727V0H94.5614C73.3955 0 73.2432 0 70.1977 3.56515V3.56515ZM132.477 19.4712C135.675 30.3038 140.852 47.9924 144.05 58.9621C148.923 75.828 150.598 79.5303 154.709 83.2326C157.602 85.975 161.105 87.7576 163.389 87.7576C168.109 87.7576 174.2 83.5068 176.332 78.5705C177.855 75.0053 199.477 2.33106 199.477 0.685606C199.477 0.274242 195.214 6.1298e-08 190.036 0.274242L180.443 0.685606L171.916 30.1667C166.586 48.8152 163.084 58.6879 162.475 56.9053C161.257 53.4773 146.182 1.23409 146.182 0.548485C146.182 0.274242 141.766 0 136.436 0H126.691L132.477 19.4712Z" fill="black"/>
</svg>
