<svg width="300" height="86" viewBox="0 0 300 86" fill="none" xmlns="http://www.w3.org/2000/svg">
<path d="M25.5357 69.8153C21.7857 69.8153 19.1071 68.9194 16.7262 66.5306L19.2262 64.0222C21.0119 65.8139 23.0357 66.4111 25.5952 66.4111C28.8095 66.4111 30.7143 65.0375 30.7143 62.5889C30.7143 61.5139 30.4167 60.6181 29.7619 60.0208C29.1071 59.4236 28.5119 59.1847 27.0238 58.9458L24.1071 58.5278C22.0833 58.2292 20.4762 57.5722 19.4048 56.5569C18.2143 55.4222 17.6191 53.8097 17.6191 51.7792C17.6191 47.4194 20.7738 44.4931 25.8929 44.4931C29.1667 44.4931 31.4881 45.3292 33.5714 47.3L31.1905 49.6889C29.6429 48.1958 27.8571 47.7778 25.7738 47.7778C22.8571 47.7778 21.25 49.45 21.25 51.6597C21.25 52.5556 21.5476 53.3917 22.2024 53.9889C22.8571 54.5264 23.8691 54.9444 25 55.1236L27.7976 55.5417C30.1191 55.9 31.3691 56.4375 32.4405 57.3931C33.8095 58.5875 34.4643 60.3792 34.4643 62.4694C34.4643 67.0681 30.7143 69.8153 25.5357 69.8153ZM44.3452 69.6361C41.0119 69.6361 39.5238 67.2472 39.5238 64.6792V54.9444H37.5V52.1972H39.5238V46.8222H43.0952V52.1972H46.4881V54.9444H43.0952V64.5C43.0952 65.8139 43.75 66.5903 45.0595 66.5903H46.5476V69.6361H44.3452ZM60.4167 69.6361V68.0236C59.1072 69.3375 57.9167 69.8153 55.7143 69.8153C53.5119 69.8153 52.0833 69.2778 50.9524 68.2028C50.0315 67.1478 49.5424 65.7824 49.5833 64.3806C49.5833 61.3944 51.6667 59.3042 55.6548 59.3042H60.2976V58.05C60.2976 55.8403 59.1667 54.7056 56.4286 54.7056C54.4643 54.7056 53.5119 55.1833 52.5595 56.4375L50.2381 54.2278C51.9048 52.2569 53.631 51.6597 56.6071 51.6597C61.4286 51.6597 63.8691 53.75 63.8691 57.7514V69.5764L60.4167 69.6361ZM60.3572 61.7528H56.1905C54.1072 61.7528 53.0357 62.7083 53.0357 64.3208C53.0357 65.9333 54.0476 66.8292 56.25 66.8292C57.6191 66.8292 58.631 66.7097 59.5833 65.8139C60.1191 65.2764 60.3572 64.4403 60.3572 63.1861V61.7528ZM76.3095 69.8153C72.3214 69.8153 68.4524 67.3667 68.4524 60.7375C68.4524 54.1083 72.381 51.6597 76.3095 51.6597C78.75 51.6597 80.4762 52.3764 82.1429 54.1681L79.7024 56.5569C78.5714 55.3625 77.7381 54.8847 76.3095 54.8847C74.9405 54.8847 73.8095 55.4222 73.0357 56.4375C72.2619 57.3931 71.9643 58.6472 71.9643 60.7375C71.9643 62.8278 72.2619 64.0819 73.0357 65.0972C73.8095 66.1125 74.9405 66.65 76.3095 66.65C77.6786 66.65 78.5714 66.1722 79.7024 64.9778L82.1429 67.3069C80.4762 69.0986 78.75 69.8153 76.3095 69.8153ZM97.381 69.6361L92.4405 61.4542L89.8214 64.4403V69.6361H86.25V44.7319H89.8214V60.0806L96.6667 51.8986H101.012L94.881 58.8264L101.786 69.5764L97.381 69.6361Z" fill="#010101"/>
<path d="M105.417 69.6361V44.7319H121.786V49.0917H110.298V54.9444H120.06V59.3042H110.298V65.3361H121.786V69.6958H105.417V69.6361ZM136.131 69.6361L132.798 64.2014L129.464 69.6361H124.048L130.298 60.3194L124.286 51.4208H129.702L132.798 56.6167L135.893 51.4208H141.31L135.298 60.3194L141.548 69.6361H136.131ZM151.012 69.8153C147.381 69.8153 142.917 67.8444 142.917 60.4986C142.917 53.1528 147.44 51.1819 151.012 51.1819C153.512 51.1819 155.417 51.9583 157.024 53.6306L153.929 56.7361C152.976 55.7208 152.202 55.3028 151.012 55.3028C149.94 55.3028 149.107 55.6611 148.452 56.4972C147.738 57.3931 147.44 58.5875 147.44 60.4986C147.44 62.4097 147.738 63.6639 148.452 64.5597C149.107 65.3361 149.94 65.7542 151.012 65.7542C152.202 65.7542 152.976 65.3361 153.929 64.3208L157.024 67.3667C155.417 69.0389 153.512 69.8153 151.012 69.8153ZM170.952 69.6361V58.4681C170.952 56.0792 169.405 55.2431 167.976 55.2431C166.548 55.2431 165.06 56.0792 165.06 58.4681V69.5764H160.536V44.7319H165.06V53.0931C166.25 51.8389 167.798 51.1819 169.405 51.1819C173.393 51.1819 175.476 53.9889 175.476 57.8111V69.5764L170.952 69.6361ZM189.643 69.6361V68.0833C188.452 69.2778 187.262 69.8153 185.179 69.8153C183.095 69.8153 181.607 69.2778 180.536 68.2028C179.551 67.0836 179.02 65.6345 179.048 64.1417C179.048 61.2153 181.012 58.8861 185.238 58.8861H189.524V57.9903C189.524 56.0194 188.571 55.1236 186.131 55.1236C184.405 55.1236 183.571 55.5417 182.619 56.6167L179.702 53.8097C181.488 51.8389 183.214 51.3014 186.25 51.3014C191.31 51.3014 193.988 53.4514 193.988 57.7514V69.7556H189.643V69.6361ZM189.583 61.9319H186.012C184.345 61.9319 183.452 62.7083 183.452 64.0222C183.452 65.2764 184.286 66.1125 186.071 66.1125C187.321 66.1125 188.155 65.9931 188.929 65.2167C189.405 64.7389 189.583 64.0222 189.583 62.8875V61.9319ZM209.524 69.6361V58.5875C209.524 56.0792 207.976 55.2431 206.548 55.2431C205.119 55.2431 203.512 56.0792 203.512 58.5875V69.5764H198.988V51.4208H203.393V53.0931C204.583 51.8389 206.25 51.1819 207.917 51.1819C209.702 51.1819 211.19 51.7792 212.202 52.7944C213.69 54.2875 214.048 55.9597 214.048 57.9903V69.6361H209.524ZM225.179 76.5042C222.381 76.5042 220.476 75.9667 218.571 74.1153L221.369 71.2486C222.381 72.2042 223.393 72.6222 224.94 72.6222C227.679 72.6222 228.571 70.7111 228.571 68.8597V67.0083C227.381 68.3222 226.012 68.8 224.226 68.8C222.44 68.8 220.893 68.2028 219.881 67.1875C218.155 65.4556 218.036 63.1264 218.036 59.9611C218.036 56.7958 218.155 54.4667 219.881 52.7347C220.893 51.7194 222.44 51.1222 224.226 51.1222C226.131 51.1222 227.381 51.6597 228.631 53.0333V51.3014H233.036V68.8597C233.155 73.3389 230.06 76.5042 225.179 76.5042ZM225.655 55.3028C222.976 55.3028 222.679 57.6319 222.679 60.0208C222.679 62.4097 222.976 64.7986 225.655 64.7986C228.333 64.7986 228.631 62.4694 228.631 60.0208C228.631 57.5722 228.333 55.3028 225.655 55.3028ZM241.786 61.9319C241.786 64.2611 243.214 65.9931 245.774 65.9931C247.738 65.9931 248.75 65.4556 249.881 64.2611L252.619 66.9486C250.774 68.8 248.988 69.8153 245.714 69.8153C241.429 69.8153 237.321 67.8444 237.321 60.4986C237.321 54.5264 240.536 51.1819 245.238 51.1819C250.298 51.1819 253.155 54.8847 253.155 59.9014V61.9319H241.786ZM248.274 56.8556C247.798 55.7806 246.786 54.9444 245.238 54.9444C243.69 54.9444 242.679 55.7208 242.202 56.8556C241.905 57.5125 241.845 57.9903 241.786 58.8264H248.69C248.69 57.9903 248.571 57.5125 248.274 56.8556Z" fill="#205296"/>
<path d="M253.75 29.8014H279.464V35.1167H253.75V29.8014Z" fill="#356DB6"/>
<path d="M253.75 22.9333H279.464V28.2486H253.75V22.9333Z" fill="#4AA2DA"/>
<path d="M275.417 15.8264H257.857C255.595 15.8264 253.75 17.7375 253.75 20.0667V21.4403H279.464V20.0667C279.464 17.7375 277.679 15.8264 275.417 15.8264Z" fill="#90D8F5"/>
<path d="M253.75 36.6097V37.9833C253.75 40.3125 255.595 42.2236 257.857 42.2236H268.869V47.8375L274.286 42.2236H275.476C277.738 42.2236 279.583 40.3125 279.583 37.9833V36.6097H253.75Z" fill="#1F5296"/>
</svg>
