<svg width="245" height="85" viewBox="0 0 245 85" fill="none" xmlns="http://www.w3.org/2000/svg">
<path d="M220.374 34.8153C223.308 34.8153 225.686 32.4391 225.686 29.5078C225.686 26.5765 223.308 24.2002 220.374 24.2002C217.44 24.2002 215.061 26.5765 215.061 29.5078C215.061 32.4391 217.44 34.8153 220.374 34.8153Z" fill="#FF4500"/>
<path d="M144.497 52.1401C147.103 52.1401 148.606 50.1873 148.506 48.2846C148.456 47.2832 148.356 46.6322 148.256 46.1315C146.652 39.2216 141.039 34.1143 134.373 34.1143C126.455 34.1143 120.04 41.2746 120.04 50.0872C120.04 58.8998 126.455 66.06 134.373 66.06C139.335 66.06 142.893 64.2574 145.449 61.4033C146.702 60.0013 146.451 57.8482 144.948 56.7967C143.695 55.9455 142.141 56.246 140.989 57.1973C139.886 58.1487 137.781 60.0514 134.373 60.0514C130.364 60.0514 126.956 56.5965 126.204 52.0399H144.497V52.1401ZM134.323 40.173C137.931 40.173 141.039 42.977 142.191 46.8325H126.455C127.607 42.9269 130.715 40.173 134.323 40.173Z" fill="#222222"/>
<path d="M120.34 37.2688C120.34 35.7667 119.238 34.565 117.835 34.3146C113.474 33.6637 109.365 35.266 107.009 38.2202V37.8196C107.009 35.967 105.506 34.8153 104.002 34.8153C102.348 34.8153 100.995 36.1673 100.995 37.8196V62.3547C100.995 63.957 102.198 65.359 103.802 65.4591C105.556 65.5593 107.009 64.2073 107.009 62.4548V49.7867C107.009 44.1787 111.219 39.5721 117.033 40.2231C117.233 40.2231 117.434 40.2231 117.634 40.2231C119.138 40.1229 120.34 38.8211 120.34 37.2688Z" fill="#222222"/>
<path d="M223.381 40.4734C223.381 38.8211 222.028 37.4691 220.374 37.4691C218.72 37.4691 217.367 38.8211 217.367 40.4734C217.367 40.5736 217.367 61.5035 217.367 62.4548C217.367 64.1072 218.72 65.4591 220.374 65.4591C222.028 65.4591 223.381 64.1072 223.381 62.4548C223.381 61.5535 223.381 40.6236 223.381 40.4734Z" fill="#222222"/>
<path d="M178.677 23.8497C178.677 22.1973 177.323 20.8454 175.67 20.8454C174.016 20.8454 172.663 22.1973 172.663 23.8497V37.2188C170.608 35.1658 168.052 34.1644 164.995 34.1644C157.076 34.1644 150.661 41.3246 150.661 50.1372C150.661 58.9498 157.076 66.1101 164.995 66.1101C168.052 66.1101 170.658 65.0586 172.713 63.0056C172.963 64.4076 174.216 65.4591 175.67 65.4591C177.323 65.4591 178.677 64.1072 178.677 62.4548V23.8497ZM165.045 60.1515C160.434 60.1515 156.725 55.6952 156.725 50.1372C156.725 44.6294 160.434 40.1229 165.045 40.1229C169.656 40.1229 173.364 44.5793 173.364 50.1372C173.364 55.6952 169.605 60.1515 165.045 60.1515Z" fill="#222222"/>
<path d="M210.05 23.8497C210.05 22.1973 208.697 20.8454 207.043 20.8454C205.389 20.8454 204.036 22.1973 204.036 23.8497V37.2188C201.981 35.1658 199.425 34.1644 196.368 34.1644C188.449 34.1644 182.034 41.3246 182.034 50.1372C182.034 58.9498 188.449 66.1101 196.368 66.1101C199.425 66.1101 202.031 65.0586 204.086 63.0056C204.336 64.4076 205.589 65.4591 207.043 65.4591C208.697 65.4591 210.05 64.1072 210.05 62.4548V23.8497ZM196.368 60.1515C191.757 60.1515 188.048 55.6952 188.048 50.1372C188.048 44.6294 191.757 40.1229 196.368 40.1229C200.979 40.1229 204.687 44.5793 204.687 50.1372C204.687 55.6952 200.979 60.1515 196.368 60.1515Z" fill="#222222"/>
<path d="M238.616 62.5049V40.173H241.273C242.676 40.173 243.929 39.1215 244.029 37.6694C244.129 36.1172 242.876 34.8153 241.373 34.8153H238.616V30.6093C238.616 29.007 237.414 27.605 235.81 27.5049C234.056 27.4048 232.602 28.7567 232.602 30.5092V34.8654H230.097C228.693 34.8654 227.44 35.9169 227.34 37.369C227.24 38.9212 228.493 40.2231 229.996 40.2231H232.552V62.555C232.552 64.2073 233.905 65.5593 235.559 65.5593C237.313 65.4591 238.616 64.1573 238.616 62.5049Z" fill="#222222"/>
<path d="M42.158 84.5364C65.3528 84.5364 84.156 65.7503 84.156 42.5764C84.156 19.4026 65.3528 0.616488 42.158 0.616488C18.9631 0.616488 0.160002 19.4026 0.160002 42.5764C0.160002 65.7503 18.9631 84.5364 42.158 84.5364Z" fill="#FF4500"/>
<path d="M70.1734 42.5764C70.1734 39.1716 67.4169 36.4677 64.0591 36.4677C62.4052 36.4677 60.9017 37.1186 59.7992 38.1701C55.5893 35.1658 49.8259 33.2131 43.4109 32.9627L46.2175 19.844L55.3388 21.7967C55.439 24.1 57.3434 25.9527 59.6989 25.9527C62.1045 25.9527 64.0591 23.9999 64.0591 21.5965C64.0591 19.193 62.1045 17.2402 59.6989 17.2402C57.995 17.2402 56.4914 18.2417 55.7898 19.6937L45.6161 17.5407C45.3154 17.4906 45.0147 17.5407 44.8142 17.6909C44.5636 17.8411 44.4133 18.0915 44.3631 18.3919L41.2559 33.0128C34.7407 33.2131 28.877 35.1658 24.6171 38.2202C23.5145 37.1687 22.011 36.5178 20.3571 36.5178C16.9492 36.5178 14.2429 39.2717 14.2429 42.6265C14.2429 45.1301 15.7464 47.2331 17.8513 48.1844C17.7511 48.7853 17.7009 49.3862 17.7009 50.0371C17.7009 59.4505 28.6765 67.1115 42.2081 67.1115C55.7397 67.1115 66.7153 59.5006 66.7153 50.0371C66.7153 49.4362 66.6652 48.7853 66.565 48.1844C68.6699 47.2331 70.1734 45.08 70.1734 42.5764ZM28.1754 46.9327C28.1754 44.5292 30.1299 42.5764 32.5355 42.5764C34.9412 42.5764 36.8957 44.5292 36.8957 46.9327C36.8957 49.3361 34.9412 51.2889 32.5355 51.2889C30.1299 51.3389 28.1754 49.3361 28.1754 46.9327ZM52.5823 58.4992C49.5753 61.5035 43.862 61.7038 42.2081 61.7038C40.5041 61.7038 34.7908 61.4534 31.8339 58.4992C31.3829 58.0485 31.3829 57.3475 31.8339 56.8969C32.285 56.4462 32.9866 56.4462 33.4377 56.8969C35.3421 58.7996 39.3514 59.4505 42.2081 59.4505C45.0648 59.4505 49.1243 58.7996 50.9786 56.8969C51.4296 56.4462 52.1313 56.4462 52.5823 56.8969C52.9833 57.3475 52.9833 58.0485 52.5823 58.4992ZM51.7805 51.339C49.3748 51.339 47.4203 49.3862 47.4203 46.9827C47.4203 44.5793 49.3748 42.6265 51.7805 42.6265C54.1861 42.6265 56.1406 44.5793 56.1406 46.9827C56.1406 49.3361 54.1861 51.339 51.7805 51.339Z" fill="white"/>
</svg>
